<?xml version="1.0" encoding="utf-8"?>
<!-- Generator: Adobe Illustrator 24.0.1, SVG Export Plug-In . SVG Version: 6.00 Build 0)  -->
<svg version="1.1" id="Layer_1" xmlns="http://www.w3.org/2000/svg" xmlns:xlink="http://www.w3.org/1999/xlink" x="0px" y="0px"
	 viewBox="0 0 643.7 164.2" style="enable-background:new 0 0 643.7 164.2;" xml:space="preserve">
<style type="text/css">
	.st0{fill:#99877C;}
	.st1{font-family:'BentonSans-Regular';}
	.st2{font-size:24.24px;}
	.st3{fill:#6E5737;}
</style>
<g>
	<g>
		<path class="st0" d="M235.3,70l1.4-0.6c0.7,1.9,2.1,2.8,3.9,2.8c2,0,3.3-0.8,3.3-2.3c0-1.4-0.8-2-3.5-2.9
			c-2.9-0.9-4.6-1.7-4.6-4.1c0-2.1,1.8-3.7,4.5-3.7c2.6,0,4.2,1.4,4.9,3.1l-1.3,0.7c-0.8-1.7-2-2.3-3.6-2.3c-1.8,0-2.8,0.9-2.8,2
			c0,1.5,0.9,2,3.7,2.8c2.8,0.9,4.5,1.8,4.5,4.2c0,2.3-2,3.9-5,3.9C237.9,73.7,236.1,72.2,235.3,70z"/>
	</g>
	<g>
		<path class="st0" d="M247.5,66.5c0-4.5,2.6-7.2,6-7.2s6,2.7,6,7.2c0,4.5-2.5,7.2-6,7.2S247.5,70.9,247.5,66.5z M257.8,66.5
			c0-3.6-1.8-5.7-4.3-5.7c-2.6,0-4.3,2.1-4.3,5.7c0,3.6,1.8,5.7,4.3,5.7C256,72.2,257.8,70.1,257.8,66.5z"/>
		<path class="st0" d="M261.6,66.4c0-4.3,2.4-7.2,5.9-7.2c2.9,0,4.5,1.7,5.1,4.3l-1.6,0.4c-0.6-2.1-1.6-3.2-3.6-3.2
			c-2.6,0-4.2,2.2-4.2,5.6c0,3.7,1.7,5.8,4.2,5.8c2,0,3.2-1.1,3.8-3.4l1.6,0.4c-0.7,2.7-2.4,4.5-5.4,4.5
			C264,73.7,261.6,70.9,261.6,66.4z"/>
		<path class="st0" d="M275.7,59.5h1.7v13.9h-1.7V59.5z"/>
		<path class="st0" d="M281,59.5h8.5V61h-6.9v4.3h5.1v1.5h-5.1v5.1h7.3v1.5H281V59.5z"/>
	</g>
	<g>
		<path class="st0" d="M292.4,59.5h3.7c4.5,0,7,2.3,7,6.9c0,4.7-2.6,7-7,7h-3.7V59.5z M296.3,71.9c3.4,0,5.1-1.6,5.1-5.5
			c0-3.7-1.8-5.4-5.2-5.4H294v10.9H296.3z"/>
	</g>
	<g>
		<path class="st0" d="M308.9,59.4h1.7l4.9,14h-1.7l-1.4-4H307l-1.4,4H304L308.9,59.4z M312,68l-2.2-6.5h0l-2.3,6.5H312z"/>
		<path class="st0" d="M317.9,59.5h3.7c4.5,0,7,2.3,7,6.9c0,4.7-2.6,7-7,7h-3.7V59.5z M321.7,71.9c3.4,0,5.1-1.6,5.1-5.5
			c0-3.7-1.8-5.4-5.2-5.4h-2.2v10.9H321.7z"/>
		<path class="st0" d="M331.3,59.5h8.5V61H333v4.3h5.1v1.5H333v5.1h7.3v1.5h-8.9V59.5z"/>
		<path class="st0" d="M347.1,59.5h3.7c4.5,0,7,2.3,7,6.9c0,4.7-2.6,7-7,7h-3.7V59.5z M351,71.9c3.4,0,5.1-1.6,5.1-5.5
			c0-3.7-1.8-5.4-5.2-5.4h-2.2v10.9H351z"/>
		<path class="st0" d="M360.6,59.5h8.5V61h-6.9v4.3h5.1v1.5h-5.1v5.1h7.3v1.5h-8.9V59.5z"/>
	</g>
	<g>
		<path class="st0" d="M379.7,59.4h1.7l4.9,14h-1.7l-1.4-4h-5.5l-1.4,4h-1.6L379.7,59.4z M382.7,68l-2.2-6.5h0l-2.3,6.5H382.7z"/>
	</g>
	<g>
		<path class="st0" d="M388.6,59.5h3.7c4.5,0,7,2.3,7,6.9c0,4.7-2.6,7-7,7h-3.7V59.5z M392.5,71.9c3.4,0,5.1-1.6,5.1-5.5
			c0-3.7-1.8-5.4-5.2-5.4h-2.2v10.9H392.5z"/>
		<path class="st0" d="M400.2,59.5h1.7l4,11.7h0l4-11.7h1.6l-4.9,14h-1.5L400.2,59.5z"/>
	</g>
	<g>
		<path class="st0" d="M412.4,66.5c0-4.5,2.6-7.2,6-7.2s6,2.7,6,7.2c0,4.5-2.5,7.2-6,7.2S412.4,70.9,412.4,66.5z M422.7,66.5
			c0-3.6-1.8-5.7-4.3-5.7c-2.6,0-4.3,2.1-4.3,5.7c0,3.6,1.8,5.7,4.3,5.7C420.9,72.2,422.7,70.1,422.7,66.5z"/>
	</g>
	<g>
		<path class="st0" d="M426.5,66.4c0-4.4,2.4-7.2,5.9-7.2c2.6,0,4.4,1.4,5.1,4.3l-1.5,0.4c-0.7-2.2-1.7-3.2-3.6-3.2
			c-2.2,0-4.2,1.7-4.2,5.6c0,3.9,1.8,5.8,4.3,5.8c2.2,0,3.6-1.5,3.7-4h-3.2v-1.4h4.8v6.6h-1.4v-2.1h0c-0.5,1.1-1.8,2.3-3.9,2.3
			C428.5,73.7,426.5,70.6,426.5,66.4z"/>
	</g>
	<g>
		<path class="st0" d="M444.5,59.4h1.7l4.9,14h-1.7l-1.4-4h-5.5l-1.4,4h-1.6L444.5,59.4z M447.6,68l-2.2-6.5h0l-2.3,6.5H447.6z"/>
		<path class="st0" d="M453.5,59.5h3.7c4.5,0,7,2.3,7,6.9c0,4.7-2.6,7-7,7h-3.7V59.5z M457.4,71.9c3.4,0,5.1-1.6,5.1-5.5
			c0-3.7-1.8-5.4-5.2-5.4h-2.2v10.9H457.4z"/>
	</g>
	<g>
		<path class="st0" d="M466.2,66.5c0-4.5,2.6-7.2,6-7.2s6,2.7,6,7.2c0,4.5-2.5,7.2-6,7.2S466.2,70.9,466.2,66.5z M476.6,66.5
			c0-3.6-1.8-5.7-4.3-5.7c-2.6,0-4.3,2.1-4.3,5.7c0,3.6,1.8,5.7,4.3,5.7C474.8,72.2,476.6,70.1,476.6,66.5z"/>
	</g>
	<g>
		<path class="st0" d="M480.1,70l1.4-0.6c0.7,1.9,2.1,2.8,3.9,2.8c2,0,3.3-0.8,3.3-2.3c0-1.4-0.8-2-3.5-2.9
			c-2.9-0.9-4.6-1.7-4.6-4.1c0-2.1,1.8-3.7,4.5-3.7s4.2,1.4,4.9,3.1l-1.3,0.7c-0.8-1.7-2-2.3-3.6-2.3c-1.8,0-2.8,0.9-2.8,2
			c0,1.5,0.9,2,3.7,2.8c2.8,0.9,4.5,1.8,4.5,4.2c0,2.3-2,3.9-5,3.9C482.7,73.7,480.9,72.2,480.1,70z"/>
	</g>
	<g>
		<path class="st0" d="M493.4,73.4h-0.7v-2h1.9v1.7l-1,2.2h-0.8L493.4,73.4z"/>
	</g>
	<g>
		<path class="st0" d="M501,70l1.4-0.6c0.7,1.9,2.1,2.8,3.9,2.8c2,0,3.3-0.8,3.3-2.3c0-1.4-0.8-2-3.5-2.9c-2.9-0.9-4.6-1.7-4.6-4.1
			c0-2.1,1.8-3.7,4.5-3.7s4.2,1.4,4.9,3.1l-1.3,0.7c-0.8-1.7-2-2.3-3.6-2.3c-1.8,0-2.8,0.9-2.8,2c0,1.5,0.9,2,3.7,2.8
			c2.8,0.9,4.5,1.8,4.5,4.2c0,2.3-2,3.9-5,3.9C503.6,73.7,501.8,72.2,501,70z"/>
		<path class="st0" d="M514.1,59.5h4.7c3,0,5,1.2,5,3.9c0,3-2.2,4.1-5.1,4.1h-2.9v5.9h-1.7V59.5z M518.8,66.1c2.2,0,3.4-0.7,3.4-2.6
			c0-1.8-1.2-2.5-3.4-2.5h-3v5.1H518.8z"/>
		<path class="st0" d="M526.9,73.4h-0.7v-2h1.9v1.7l-1,2.2h-0.8L526.9,73.4z"/>
		<path class="st0" d="M535.7,59.5h4.8c3.2,0,4.9,1.3,4.9,3.9c0,2.2-1.3,3.4-3.2,3.8l3.4,6.2h-1.8l-3.3-6h-3.1v6h-1.6V59.5z
			 M540.4,65.9c2.2,0,3.4-0.6,3.4-2.5c0-1.8-1.2-2.4-3.4-2.4h-3v4.9H540.4z"/>
		<path class="st0" d="M548.5,59.5h1.7v12.4h6.7v1.5h-8.3V59.5z"/>
	</g>
	<g>
		<path class="st0" d="M236.5,84.5h6.2c4.1,0,6.4,1.7,6.4,5c0,2.9-1.6,4.4-4.2,4.9l4.4,8H247l-4.3-7.7h-4v7.7h-2.1V84.5z
			 M242.6,92.9c2.8,0,4.4-0.8,4.4-3.2c0-2.4-1.6-3.2-4.4-3.2h-3.9v6.4H242.6z"/>
	</g>
	<g>
		<path class="st0" d="M251.8,93.5c0-5.8,3.3-9.3,7.8-9.3s7.7,3.5,7.7,9.3c0,5.8-3.3,9.3-7.7,9.3S251.8,99.3,251.8,93.5z
			 M265.2,93.5c0-4.7-2.3-7.4-5.6-7.4c-3.3,0-5.6,2.7-5.6,7.4c0,4.7,2.3,7.4,5.6,7.4C262.8,100.9,265.2,98.2,265.2,93.5z"/>
		<path class="st0" d="M270,93.4c0-5.7,3.2-9.2,7.6-9.2c3.4,0,5.7,1.8,6.6,5.6l-2,0.5c-0.8-2.9-2.2-4.1-4.7-4.1
			c-2.8,0-5.5,2.2-5.5,7.2c0,5,2.4,7.5,5.5,7.5c2.8,0,4.7-1.9,4.7-5.2h-4.1v-1.8h6.2v8.6h-1.9v-2.7h0c-0.7,1.5-2.3,3-5.1,3
			C272.6,102.8,270,98.9,270,93.4z"/>
		<path class="st0" d="M288.6,84.5h11v2h-8.9v5.6h6.6V94h-6.6v6.5h9.4v1.9h-11.5V84.5z M295.1,79.6h2.5l-3.4,3.8h-1.4L295.1,79.6z"
			/>
		<path class="st0" d="M303.3,84.5h6.2c4.1,0,6.4,1.7,6.4,5c0,2.9-1.6,4.4-4.2,4.9l4.4,8h-2.3l-4.3-7.7h-4v7.7h-2.1V84.5z
			 M309.4,92.9c2.8,0,4.4-0.8,4.4-3.2c0-2.4-1.6-3.2-4.4-3.2h-3.9v6.4H309.4z"/>
		<path class="st0" d="M320,84.5h2.1v17.9H320V84.5z"/>
		<path class="st0" d="M325.9,93.5c0-5.8,3.3-9.3,7.8-9.3c4.4,0,7.7,3.5,7.7,9.3c0,5.8-3.3,9.3-7.7,9.3
			C329.2,102.8,325.9,99.3,325.9,93.5z M339.2,93.5c0-4.7-2.3-7.4-5.6-7.4c-3.3,0-5.6,2.7-5.6,7.4c0,4.7,2.3,7.4,5.6,7.4
			C336.9,100.9,339.2,98.2,339.2,93.5z"/>
		<path class="st0" d="M350.6,84.5h10.8v2h-8.6v5.8h6.4v1.9h-6.4v8.3h-2.1V84.5z"/>
		<path class="st0" d="M364.4,84.5h11v2h-8.9v5.6h6.6V94h-6.6v6.5h9.4v1.9h-11.5V84.5z"/>
		<path class="st0" d="M379.1,84.5h6.2c4.1,0,6.4,1.7,6.4,5c0,2.9-1.6,4.4-4.2,4.9l4.4,8h-2.3l-4.3-7.7h-4v7.7h-2.1V84.5z
			 M385.2,92.9c2.8,0,4.4-0.8,4.4-3.2c0-2.4-1.6-3.2-4.4-3.2h-3.9v6.4H385.2z"/>
		<path class="st0" d="M395.6,84.5h2.3l9.4,14.2h0V84.5h2v17.9h-1.9l-9.8-14.6h0v14.6h-2V84.5z"/>
		<path class="st0" d="M418.6,84.5h2.2l6.4,18H425l-1.8-5.1h-7.1l-1.8,5.1h-2.1L418.6,84.5z M422.6,95.5l-2.9-8.4h0l-2.9,8.4H422.6z
			"/>
		<path class="st0" d="M430.2,84.5h2.3l9.4,14.2h0V84.5h2v17.9H442l-9.8-14.6h0v14.6h-2V84.5z"/>
		<path class="st0" d="M448.3,84.5h4.7c5.8,0,9,2.9,9,8.9c0,6.1-3.3,9-9,9h-4.7V84.5z M453.3,100.6c4.3,0,6.6-2.1,6.6-7.1
			c0-4.8-2.3-7-6.7-7h-2.8v14.1H453.3z"/>
	</g>
	<g>
		<path class="st0" d="M465.7,84.5h11v2h-8.9v5.6h6.6V94h-6.6v6.5h9.4v1.9h-11.5V84.5z"/>
	</g>
	<g>
		<path class="st0" d="M479.1,98.2l1.8-0.8c0.9,2.4,2.7,3.6,5.1,3.6c2.5,0,4.2-1.1,4.2-3c0-1.8-1-2.6-4.5-3.8c-3.7-1.1-6-2.2-6-5.3
			c0-2.7,2.4-4.8,5.8-4.8c3.4,0,5.4,1.7,6.3,4l-1.7,0.9c-1-2.2-2.5-3-4.7-3c-2.3,0-3.6,1.1-3.6,2.6c0,1.9,1.2,2.5,4.7,3.7
			c3.6,1.1,5.7,2.3,5.7,5.4c0,3-2.6,5-6.4,5C482.5,102.8,480.1,101,479.1,98.2z"/>
		<path class="st0" d="M501.6,84.5h10.8v2h-8.6v5.8h6.4v1.9h-6.4v8.3h-2.1V84.5z"/>
		<path class="st0" d="M515.4,84.5h11v2h-8.9v5.6h6.6V94h-6.6v6.5h9.4v1.9h-11.5V84.5z"/>
		<path class="st0" d="M530.2,84.5h6.2c4.1,0,6.4,1.7,6.4,5c0,2.9-1.6,4.4-4.2,4.9l4.4,8h-2.3l-4.3-7.7h-4v7.7h-2.1V84.5z
			 M536.2,92.9c2.8,0,4.4-0.8,4.4-3.2c0-2.4-1.6-3.2-4.4-3.2h-3.9v6.4H536.2z"/>
		<path class="st0" d="M546.6,84.5h6.2c4.1,0,6.4,1.7,6.4,5c0,2.9-1.6,4.4-4.2,4.9l4.4,8H557l-4.3-7.7h-4v7.7h-2.1V84.5z
			 M552.6,92.9c2.8,0,4.4-0.8,4.4-3.2c0-2.4-1.6-3.2-4.4-3.2h-3.9v6.4H552.6z"/>
		<path class="st0" d="M563,84.5h11v2h-8.9v5.6h6.6V94h-6.6v6.5h9.4v1.9H563V84.5z"/>
		<path class="st0" d="M578,84.5h2.1v17.9H578V84.5z"/>
	</g>
	<g>
		<path class="st0" d="M584.8,84.5h6.2c4.1,0,6.4,1.7,6.4,5c0,2.9-1.6,4.4-4.2,4.9l4.4,8h-2.3l-4.3-7.7h-4v7.7h-2.1V84.5z
			 M590.8,92.9c2.8,0,4.4-0.8,4.4-3.2c0-2.4-1.6-3.2-4.4-3.2h-3.9v6.4H590.8z"/>
	</g>
	<g>
		<path class="st0" d="M605.9,84.5h2.2l6.4,18h-2.2l-1.8-5.1h-7.1l-1.8,5.1h-2.1L605.9,84.5z M609.8,95.5l-2.9-8.4h0l-2.9,8.4H609.8
			z"/>
	</g>
	<text transform="matrix(1 0 0 1 614.5366 102.4904)" class="st0 st1 st2"> </text>
	<g>
		<path class="st0" d="M235.2,127c0-2.7,1.9-4.3,4.2-5.5c-0.8-1.4-1.2-2.7-1.2-4.1c0-2.2,1.4-4.3,4.4-4.3c2.6,0,3.9,1.6,3.9,3.5
			c0,2.5-2,4-4.5,5.2c0.4,0.6,0.9,1.3,1.6,2.1c1.1,1.4,2.1,2.5,2.9,3.3c0.9-1.3,1.5-3,1.8-4.9h1.9c-0.3,2.3-1.1,4.4-2.3,6
			c1.3,1,2.4,1.4,3.6,1.4v1.8c-1.9-0.1-3.3-0.5-4.9-1.8c-1.4,1.2-3.1,1.9-5.3,1.9C237.2,131.8,235.2,129.9,235.2,127z M245.1,128.8
			c-0.9-0.9-2-2.1-3.2-3.7c-0.6-0.8-1.2-1.5-1.6-2.2c-1.7,1-2.9,2.3-2.9,3.9c0,2.1,1.4,3.2,4,3.2
			C242.8,130.1,244.1,129.6,245.1,128.8z M244.5,116.9c0-1-0.6-2-2-2c-1.5,0-2.4,1-2.4,2.5c0,1.1,0.3,2.1,1,3.3
			C243,119.7,244.5,118.7,244.5,116.9z"/>
	</g>
	<g>
		<path class="st0" d="M264,113.5h2.2l6.4,18h-2.2l-1.8-5.1h-7.1l-1.8,5.1h-2.1L264,113.5z M267.9,124.5l-2.9-8.4h0l-2.9,8.4H267.9z
			"/>
	</g>
	<g>
		<path class="st0" d="M274.1,127.1l1.8-0.8c0.9,2.4,2.7,3.6,5.1,3.6c2.5,0,4.2-1.1,4.2-3c0-1.8-1-2.6-4.5-3.8c-3.7-1.1-6-2.2-6-5.3
			c0-2.7,2.4-4.8,5.8-4.8s5.4,1.7,6.3,4l-1.7,0.9c-1-2.2-2.5-3-4.7-3c-2.3,0-3.6,1.1-3.6,2.6c0,1.9,1.2,2.5,4.7,3.7
			c3.6,1.1,5.7,2.3,5.7,5.4c0,3-2.6,5-6.4,5C277.5,131.8,275.1,130,274.1,127.1z"/>
		<path class="st0" d="M289.8,127.1l1.8-0.8c0.9,2.4,2.7,3.6,5.1,3.6c2.5,0,4.2-1.1,4.2-3c0-1.8-1-2.6-4.5-3.8c-3.7-1.1-6-2.2-6-5.3
			c0-2.7,2.4-4.8,5.8-4.8c3.4,0,5.4,1.7,6.3,4l-1.7,0.9c-1-2.2-2.5-3-4.7-3c-2.3,0-3.6,1.1-3.6,2.6c0,1.9,1.2,2.5,4.7,3.7
			c3.6,1.1,5.7,2.3,5.7,5.4c0,3-2.6,5-6.4,5C293.2,131.8,290.8,130,289.8,127.1z"/>
	</g>
	<g>
		<path class="st0" d="M305.5,122.5c0-5.8,3.3-9.3,7.8-9.3c4.4,0,7.7,3.5,7.7,9.3s-3.3,9.3-7.7,9.3
			C308.9,131.8,305.5,128.3,305.5,122.5z M318.9,122.5c0-4.7-2.3-7.4-5.6-7.4c-3.3,0-5.6,2.7-5.6,7.4c0,4.7,2.3,7.4,5.6,7.4
			C316.6,129.9,318.9,127.2,318.9,122.5z"/>
		<path class="st0" d="M323.7,122.4c0-5.6,3.1-9.2,7.6-9.2c3.8,0,5.8,2.2,6.6,5.5l-2,0.6c-0.8-2.7-2-4.1-4.6-4.1
			c-3.3,0-5.4,2.8-5.4,7.2c0,4.8,2.1,7.5,5.5,7.5c2.5,0,4.1-1.4,4.9-4.3l2,0.5c-0.9,3.5-3.2,5.8-6.9,5.8
			C326.8,131.8,323.7,128.3,323.7,122.4z"/>
		<path class="st0" d="M341.9,113.5h2.1v17.9h-2.1V113.5z"/>
		<path class="st0" d="M353.6,113.5h2.2l6.4,18H360l-1.8-5.1h-7.1l-1.8,5.1h-2.1L353.6,113.5z M357.6,124.5l-2.9-8.4h0l-2.9,8.4
			H357.6z"/>
		<path class="st0" d="M365.2,113.5h4.7c5.8,0,9,2.9,9,8.9c0,6.1-3.3,9-9,9h-4.7V113.5z M370.2,129.6c4.3,0,6.6-2.1,6.6-7.1
			c0-4.8-2.3-7-6.7-7h-2.8v14.1H370.2z"/>
	</g>
	<g>
		<path class="st0" d="M381.6,122.5c0-5.8,3.3-9.3,7.8-9.3c4.4,0,7.7,3.5,7.7,9.3s-3.3,9.3-7.7,9.3
			C385,131.8,381.6,128.3,381.6,122.5z M395,122.5c0-4.7-2.3-7.4-5.6-7.4c-3.3,0-5.6,2.7-5.6,7.4c0,4.7,2.3,7.4,5.6,7.4
			C392.6,129.9,395,127.2,395,122.5z"/>
	</g>
	<g>
		<path class="st0" d="M399.6,127.1l1.8-0.8c0.9,2.4,2.7,3.6,5.1,3.6c2.5,0,4.2-1.1,4.2-3c0-1.8-1-2.6-4.5-3.8c-3.7-1.1-6-2.2-6-5.3
			c0-2.7,2.4-4.8,5.8-4.8c3.4,0,5.4,1.7,6.3,4l-1.7,0.9c-1-2.2-2.5-3-4.7-3c-2.3,0-3.6,1.1-3.6,2.6c0,1.9,1.2,2.5,4.7,3.7
			c3.6,1.1,5.7,2.3,5.7,5.4c0,3-2.6,5-6.4,5C402.9,131.8,400.5,130,399.6,127.1z"/>
	</g>
	<path class="st3" d="M195,24.9h-20.6H165c-8.1,0-11.5,3.4-11.5,11.5v49.4h-52.1V44.3c0-2.7,1.4-3.9,4-3.9h0.6h36.1v-3.9
		c0-8.1-3.4-11.5-11.5-11.5h-4H106h-9.3c-8.1,0-11.5,3.4-11.5,11.5v49.4H53.9c4.5-5.5,7.9-13.3,7.9-23.8c0-23.1-15.6-37.1-37.8-37.1
		H0v15.4h21.9c13.3,0,21.3,8.2,21.3,22.4c0,14.2-8.1,22.9-21.7,22.9H0v15.4h14.8c7,0,9.3,0.9,12.6,6.8L44.5,142
		c4.1,8.2,7.7,9.5,17.6,9.5h8.8v-15.4h-2.3c-4.3,0-7.2-0.4-9-4.1l-15.2-30.3c-0.1-0.2-0.3-0.4-0.4-0.6h41.2v50.5h16.3V101h52.1v50.5
		h16.3V101h25.7v0h3.3c8.1,0,11.5-3.4,11.5-11.5l0-3.7h-14.7h-24.2h-0.6h-1V44.3c0-2.7,1.4-3.9,4-3.9h0.6h36.1l0-3.9
		c0-8.1-3.4-11.5-11.5-11.5H195z"/>
</g>
</svg>
