<?xml version="1.0" encoding="utf-8"?>
<!-- Generator: Adobe Illustrator 24.0.1, SVG Export Plug-In . SVG Version: 6.00 Build 0)  -->
<svg version="1.1" id="Layer_1" xmlns="http://www.w3.org/2000/svg" xmlns:xlink="http://www.w3.org/1999/xlink" x="0px" y="0px"
	 viewBox="0 0 448 512" style="enable-background:new 0 0 448 512;" xml:space="preserve">
<style type="text/css">
	.st0{fill:#6E5636;}
</style>
<path class="st0" d="M400,32H48C21.5,32,0,53.5,0,80v352c0,26.5,21.5,48,48,48h352c26.5,0,48-21.5,48-48V80
	C448,53.5,426.5,32,400,32z M140.4,320.2H93.8c-5.5,0-8.7-5.3-6-10.3l49.3-86.7c0.1,0,0.1-0.1,0-0.2l-31.4-54
	c-3-5.6,0.2-10.1,6-10.1h46.6c5.2,0,9.5,2.9,12.9,8.7l31.9,55.3c-1.3,2.3-18,31.7-50.1,88.2C149.5,317.3,145.3,320.2,140.4,320.2
	L140.4,320.2z M360.1,106.1L257.3,286.8v0.2l65.5,119c2.8,5.1,0.1,10.1-6,10.1h-46.6c-5.5,0-9.7-2.9-12.9-8.7l-66-120.3
	c2.3-4.1,36.8-64.9,103.4-182.3c3.3-5.8,7.4-8.7,12.5-8.7h46.9C359.8,96,362.9,100.8,360.1,106.1L360.1,106.1z"/>
</svg>
